<svg width="24" height="24" viewBox="0 0 24 24" fill="none" xmlns="http://www.w3.org/2000/svg">
<path d="M12 8C12.7333 8 13.3333 7.4 13.3333 6.66667C13.3333 5.93334 12.7333 5.33334 12 5.33334C11.2667 5.33334 10.6667 5.93334 10.6667 6.66667C10.6667 7.4 11.2667 8 12 8ZM12 10.6667C11.2667 10.6667 10.6667 11.2667 10.6667 12C10.6667 12.7333 11.2667 13.3333 12 13.3333C12.7333 13.3333 13.3333 12.7333 13.3333 12C13.3333 11.2667 12.7333 10.6667 12 10.6667ZM12 16C11.2667 16 10.6667 16.6 10.6667 17.3333C10.6667 18.0667 11.2667 18.6667 12 18.6667C12.7333 18.6667 13.3333 18.0667 13.3333 17.3333C13.3333 16.6 12.7333 16 12 16Z" fill="black"/>
</svg>
