<svg width="24" height="24" viewBox="0 0 24 24" fill="none" xmlns="http://www.w3.org/2000/svg">
<mask id="mask0_1005_172339" style="mask-type:alpha" maskUnits="userSpaceOnUse" x="0" y="0" width="24" height="24">
<rect width="24" height="24" fill="#D9D9D9"/>
</mask>
<g mask="url(#mask0_1005_172339)">
<path d="M7 21V8L13 2.05C13.25 1.8 13.5458 1.65417 13.8875 1.6125C14.2292 1.57083 14.5583 1.63333 14.875 1.8C15.1917 1.96667 15.425 2.2 15.575 2.5C15.725 2.8 15.7583 3.10833 15.675 3.425L14.55 8H21C21.5333 8 22 8.2 22.4 8.6C22.8 9 23 9.46667 23 10V12C23 12.1167 22.9833 12.2417 22.95 12.375C22.9167 12.5083 22.8833 12.6333 22.85 12.75L19.85 19.8C19.7 20.1333 19.45 20.4167 19.1 20.65C18.75 20.8833 18.3833 21 18 21H7ZM9 8.85V19H18L21 12V10H12L13.35 4.5L9 8.85ZM4 21C3.45 21 2.97917 20.8042 2.5875 20.4125C2.19583 20.0208 2 19.55 2 19V10C2 9.45 2.19583 8.97917 2.5875 8.5875C2.97917 8.19583 3.45 8 4 8H7V10H4V19H7V21H4Z" fill="#1C1B1F"/>
</g>
</svg>
