<svg width="25" height="24" viewBox="0 0 25 24" fill="none" xmlns="http://www.w3.org/2000/svg">
<g id="Wb sunny" clip-path="url(#clip0_1690_6070)">
<path id="Vector" d="M6.29951 4.59L5.90951 4.2C5.51951 3.81 4.88951 3.82 4.50951 4.2L4.49951 4.21C4.10951 4.6 4.10951 5.23 4.49951 5.61L4.88951 6C5.27951 6.39 5.89951 6.39 6.28951 6L6.29951 5.99C6.68951 5.61 6.68951 4.97 6.29951 4.59ZM3.25951 10.95H2.23951C1.68951 10.95 1.24951 11.39 1.24951 11.94V11.95C1.24951 12.5 1.68951 12.94 2.23951 12.94H3.24951C3.80951 12.95 4.24951 12.51 4.24951 11.96V11.95C4.24951 11.39 3.80951 10.95 3.25951 10.95ZM12.2595 1H12.2495C11.6895 1 11.2495 1.44 11.2495 1.99V2.95C11.2495 3.5 11.6895 3.94 12.2395 3.94H12.2495C12.8095 3.95 13.2495 3.51 13.2495 2.96V1.99C13.2495 1.44 12.8095 1 12.2595 1ZM19.9995 4.21C19.6095 3.82 18.9795 3.82 18.5895 4.2L18.1995 4.59C17.8095 4.98 17.8095 5.61 18.1995 5.99L18.2095 6C18.5995 6.39 19.2295 6.39 19.6095 6L19.9995 5.61C20.3895 5.22 20.3895 4.6 19.9995 4.21ZM18.1895 19.31L18.5795 19.7C18.9695 20.09 19.5995 20.09 19.9895 19.7C20.3795 19.31 20.3795 18.68 19.9895 18.29L19.5995 17.9C19.2095 17.51 18.5795 17.52 18.1995 17.9C17.7995 18.3 17.7995 18.92 18.1895 19.31ZM20.2495 11.94V11.95C20.2495 12.5 20.6895 12.94 21.2395 12.94H22.2495C22.7995 12.94 23.2395 12.5 23.2395 11.95V11.94C23.2395 11.39 22.7995 10.95 22.2495 10.95H21.2395C20.6895 10.95 20.2495 11.39 20.2495 11.94ZM12.2495 5.95C8.93951 5.95 6.24951 8.64 6.24951 11.95C6.24951 15.26 8.93951 17.95 12.2495 17.95C15.5595 17.95 18.2495 15.26 18.2495 11.95C18.2495 8.64 15.5595 5.95 12.2495 5.95ZM12.2395 22.9H12.2495C12.7995 22.9 13.2395 22.46 13.2395 21.91V20.95C13.2395 20.4 12.7995 19.96 12.2495 19.96H12.2395C11.6895 19.96 11.2495 20.4 11.2495 20.95V21.91C11.2495 22.46 11.6895 22.9 12.2395 22.9ZM4.49951 19.69C4.88951 20.08 5.51951 20.08 5.90951 19.69L6.29951 19.3C6.68951 18.91 6.67951 18.28 6.29951 17.9L6.28951 17.89C5.89951 17.5 5.26951 17.5 4.87951 17.89L4.48951 18.28C4.10951 18.68 4.10951 19.3 4.49951 19.69Z" fill="white"/>
</g>
<defs>
<clipPath id="clip0_1690_6070">
<rect width="24" height="24" fill="white" transform="translate(0.249512)"/>
</clipPath>
</defs>
</svg>
