<svg width="44" height="44" viewBox="0 0 44 44" fill="none" xmlns="http://www.w3.org/2000/svg">
<path id="Vector" d="M10.11 7.2801L9.33001 6.5001C8.55001 5.7201 7.29001 5.7401 6.53001 6.5001L6.51001 6.5201C5.73001 7.3001 5.73001 8.5601 6.51001 9.3201L7.29001 10.1001C8.07001 10.8801 9.31001 10.8801 10.09 10.1001L10.11 10.0801C10.89 9.3201 10.89 8.0401 10.11 7.2801ZM4.03001 20.0001H1.99001C0.89001 20.0001 0.0100098 20.8801 0.0100098 21.9801V22.0001C0.0100098 23.1001 0.89001 23.9801 1.99001 23.9801H4.01001C5.13001 24.0001 6.01001 23.1201 6.01001 22.0201V22.0001C6.01001 20.8801 5.13001 20.0001 4.03001 20.0001ZM22.03 0.100098H22.01C20.89 0.100098 20.01 0.980098 20.01 2.0801V4.0001C20.01 5.1001 20.89 5.9801 21.99 5.9801H22.01C23.13 6.0001 24.01 5.1201 24.01 4.0201V2.0801C24.01 0.980098 23.13 0.100098 22.03 0.100098ZM37.51 6.5201C36.73 5.7401 35.47 5.7401 34.69 6.5001L33.91 7.2801C33.13 8.0601 33.13 9.3201 33.91 10.0801L33.93 10.1001C34.71 10.8801 35.97 10.8801 36.73 10.1001L37.51 9.3201C38.29 8.5401 38.29 7.3001 37.51 6.5201ZM33.89 36.7201L34.67 37.5001C35.45 38.2801 36.71 38.2801 37.49 37.5001C38.27 36.7201 38.27 35.4601 37.49 34.6801L36.71 33.9001C35.93 33.1201 34.67 33.1401 33.91 33.9001C33.11 34.7001 33.11 35.9401 33.89 36.7201ZM38.01 21.9801V22.0001C38.01 23.1001 38.89 23.9801 39.99 23.9801H42.01C43.11 23.9801 43.99 23.1001 43.99 22.0001V21.9801C43.99 20.8801 43.11 20.0001 42.01 20.0001H39.99C38.89 20.0001 38.01 20.8801 38.01 21.9801ZM22.01 10.0001C15.39 10.0001 10.01 15.3801 10.01 22.0001C10.01 28.6201 15.39 34.0001 22.01 34.0001C28.63 34.0001 34.01 28.6201 34.01 22.0001C34.01 15.3801 28.63 10.0001 22.01 10.0001ZM21.99 43.9001H22.01C23.11 43.9001 23.99 43.0201 23.99 41.9201V40.0001C23.99 38.9001 23.11 38.0201 22.01 38.0201H21.99C20.89 38.0201 20.01 38.9001 20.01 40.0001V41.9201C20.01 43.0201 20.89 43.9001 21.99 43.9001ZM6.51001 37.4801C7.29001 38.2601 8.55001 38.2601 9.33001 37.4801L10.11 36.7001C10.89 35.9201 10.87 34.6601 10.11 33.9001L10.09 33.8801C9.31001 33.1001 8.05001 33.1001 7.27001 33.8801L6.49001 34.6601C5.73001 35.4601 5.73001 36.7001 6.51001 37.4801Z" fill="white"/>
</svg>
