<svg width="28" height="28" viewBox="0 0 28 28" fill="none" xmlns="http://www.w3.org/2000/svg">
<g id="Group 9">
<path id="Vector" d="M3.5 11.0347L11.6433 5.76525C11.8106 5.65831 12.0089 5.59998 12.2131 5.59998H15.785C15.9892 5.59998 16.1875 5.65831 16.3547 5.76525L24.4981 11.0347" stroke="#C7C7CC" stroke-width="1.75" stroke-linecap="round" stroke-linejoin="round"/>
<path id="Vector_2" d="M22.4 12.7108V22.7325C22.4 23.3605 21.842 23.868 21.1536 23.868H6.84643C6.15809 23.868 5.60004 23.3586 5.60004 22.7325V12.7108C5.60004 12.7108 14 12.7108 14 17.4922C14 17.4922 14 12.7108 22.4 12.7108Z" stroke="#C7C7CC" stroke-width="1.75" stroke-linecap="round" stroke-linejoin="round"/>
<path id="Vector_3" d="M10.5 23.868V19.0069C10.5 18.1708 11.0581 17.4922 11.7464 17.4922H16.2517C16.94 17.4922 17.4981 18.1708 17.4981 19.0069V23.868" stroke="#C7C7CC" stroke-width="1.75" stroke-linecap="round" stroke-linejoin="round"/>
<path id="Vector_4" d="M16.3567 5.76534V2.50256H20.9747V8.75395" stroke="#C7C7CC" stroke-width="1.75" stroke-linecap="round" stroke-linejoin="round"/>
</g>
</svg>
