<svg width="28" height="28" viewBox="0 0 28 28" fill="none" xmlns="http://www.w3.org/2000/svg">
<g id="Frame 20">
<path id="Vector" d="M23.7027 9.98667L20.9747 8.22112V2.87195C20.9747 2.37417 20.5702 1.96973 20.0725 1.96973H17.2569C16.7591 1.96973 16.3547 2.37417 16.3547 2.87195V5.2325C16.1875 5.12556 15.9891 5.06723 15.785 5.06723H12.213C12.0089 5.06723 11.8105 5.12556 11.6433 5.2325L4.31469 9.975C3.87135 10.2608 3.76441 10.8675 4.08913 11.2817C4.59858 11.9331 5.10413 12.5164 5.60774 13.0472C5.6058 13.0725 5.59997 13.0958 5.59997 13.1211V22.1978C5.59997 22.8258 6.15802 23.3333 6.84635 23.3333H21.1516C21.84 23.3333 22.398 22.8239 22.398 22.1978V13.0997C22.398 13.0842 22.3941 13.0686 22.3922 13.0531C23.0475 12.3822 23.5647 11.7581 23.9225 11.2953C24.2452 10.8772 24.1422 10.2725 23.6989 9.98667H23.7027Z" fill="#FFA339"/>
</g>
</svg>
