<svg width="28" height="28" viewBox="0 0 28 28" fill="none" xmlns="http://www.w3.org/2000/svg">
<g id="Group 38">
<path id="Vector" d="M11.0268 7.76618C10.6165 9.1234 9.54903 10.1967 8.19569 10.6167C7.47236 10.8403 6.96875 11.4956 6.96875 12.254V17.5448C6.96875 18.5948 7.90792 19.3901 8.94625 19.2306C14.4646 18.379 18.824 14.0195 19.6757 8.50118C19.8351 7.46285 19.0399 6.52368 17.9899 6.52368H12.6699C11.9057 6.52368 11.2485 7.03507 11.0288 7.76618H11.0268Z" fill="#FFA339"/>
<path id="Vector_2" d="M14 23.312C19.799 23.312 24.5 22.5285 24.5 21.562C24.5 20.5955 19.799 19.812 14 19.812C8.20101 19.812 3.5 20.5955 3.5 21.562C3.5 22.5285 8.20101 23.312 14 23.312Z" fill="#FFA339"/>
<path id="Vector_3" d="M11.2408 6.39331C11.2408 8.74609 9.34694 10.6536 7 10.6769V19.25C14.1011 19.25 19.8567 13.4944 19.8567 6.39331H11.2408Z" stroke="#FFA339" stroke-width="1.55556" stroke-linecap="round" stroke-linejoin="round"/>
</g>
</svg>
