<svg width="25" height="24" viewBox="0 0 25 24" fill="none" xmlns="http://www.w3.org/2000/svg">
<path d="M14.9238 6.40942C15.4302 5.79517 15.7871 4.95679 15.7871 4.11011C15.7871 3.9939 15.7788 3.87769 15.7622 3.78638C14.9321 3.81958 13.936 4.33423 13.3467 5.03149C12.8735 5.56274 12.4419 6.40942 12.4419 7.2561C12.4419 7.38892 12.4668 7.51343 12.4751 7.55493C12.5249 7.56323 12.6079 7.57983 12.6992 7.57983C13.438 7.57983 14.3677 7.08179 14.9238 6.40942ZM15.5049 7.75415C14.2681 7.75415 13.2554 8.50952 12.6079 8.50952C11.9189 8.50952 11.0225 7.80396 9.94336 7.80396C7.89307 7.80396 5.81787 9.49731 5.81787 12.6848C5.81787 14.677 6.58154 16.7771 7.53613 18.1301C8.34961 19.2756 9.06348 20.2136 10.0928 20.2136C11.1055 20.2136 11.5537 19.5413 12.8154 19.5413C14.0938 19.5413 14.3843 20.197 15.5049 20.197C16.6172 20.197 17.356 19.176 18.0615 18.1716C18.8418 17.0178 19.1738 15.8972 19.1821 15.8391C19.1157 15.8225 16.9907 14.9509 16.9907 12.5188C16.9907 10.4104 18.6592 9.46411 18.7588 9.3894C17.6548 7.80396 15.9697 7.75415 15.5049 7.75415Z" fill="white"/>
</svg>
