<svg width="128" height="128" viewBox="0 0 128 128" fill="none" xmlns="http://www.w3.org/2000/svg">
<path d="M81.9851 42.3704C75.5555 60.5511 61.1496 74.963 42.9629 81.3926V106.37C78.311 106.37 106.963 77.7185 106.963 42.3704H81.9851Z" fill="#FFBD3E"/>
<path d="M64.2962 42.3703H81.9851C84.3436 35.6977 85.6296 28.5155 85.6296 21.037H42.9629C54.7436 21.037 64.2962 30.5896 64.2962 42.3703Z" fill="#FFBD3E"/>
<path d="M21.6294 42.3704V85.037C29.1079 85.037 36.2901 83.7511 42.9627 81.3926V63.7037C31.182 63.7037 21.6294 54.1511 21.6294 42.3704Z" fill="#FFBD3E"/>
<path d="M81.9851 42.3704H64.2962C64.2962 54.1511 54.7436 63.7037 42.9629 63.7037V81.3926C61.1436 74.963 75.5555 60.557 81.9851 42.3704Z" fill="#FFF0D4"/>
<path d="M42.9627 63.7037C54.6427 63.5792 64.0709 54.08 64.0709 42.3703H64.2961C64.2961 30.5896 54.7435 21.037 42.9627 21.037C42.8857 21.037 42.8146 21.037 42.7375 21.037C42.7375 32.7407 33.3035 42.24 21.6294 42.3585C21.6294 54.1392 31.182 63.6918 42.9627 63.6918V63.7037Z" fill="#FFBD3E"/>
<path d="M42.9629 63.6978C54.7436 63.6978 64.2962 54.1511 64.2962 42.3704H64.071C64.071 54.08 54.637 63.5792 42.9629 63.6978Z" fill="#FFBD3E"/>
</svg>
