<svg width="24" height="24" viewBox="0 0 24 24" fill="none" xmlns="http://www.w3.org/2000/svg">
<path d="M21.3096 17.8169C19.8683 16.2019 17.8528 15.7762 16.0243 16.3809C15.5284 14.6319 13.0502 15.2936 13.0104 17.0916C12.8102 18.5846 11.052 19.66 9.72467 19.9795C8.04997 20.3057 8.56975 23.1141 10.1437 22.711C11.9748 22.3888 14.5406 20.5948 15.5775 18.8286C17.0559 18.2027 18.5755 18.509 19.3101 19.587C20.6652 21.2684 22.9008 19.3749 21.3083 17.8169H21.3096Z" fill="#FFF0D4"/>
<path d="M5.94439 20.665C7.13879 20.665 8.10704 19.6968 8.10704 18.5024C8.10704 17.308 7.13879 16.3397 5.94439 16.3397C4.74999 16.3397 3.78174 17.308 3.78174 18.5024C3.78174 19.6968 4.74999 20.665 5.94439 20.665Z" fill="#FFF0D4"/>
<path d="M18.6514 7.43456C19.8458 7.43456 20.8141 6.4663 20.8141 5.2719C20.8141 4.07751 19.8458 3.10925 18.6514 3.10925C17.457 3.10925 16.4888 4.07751 16.4888 5.2719C16.4888 6.4663 17.457 7.43456 18.6514 7.43456Z" fill="#FFF0D4"/>
<path d="M4.65679 6.41881C5.85119 6.41881 6.81944 5.45056 6.81944 4.25616C6.81944 3.06176 5.85119 2.09351 4.65679 2.09351C3.46239 2.09351 2.49414 3.06176 2.49414 4.25616C2.49414 5.45056 3.46239 6.41881 4.65679 6.41881Z" fill="#FFF0D4"/>
<path d="M12.1647 5.1963C12.0162 5.1963 11.869 5.20293 11.7218 5.21222C11.7828 4.8489 11.8067 4.43387 11.751 3.97244C11.7245 3.7457 11.6675 3.52028 11.5654 3.31608C10.7433 1.67188 8.58856 2.02989 8.1722 3.96448C8.1258 4.18061 8.02767 4.47763 7.94414 4.73354C7.37662 6.44404 5.49375 7.76735 3.89596 8.15321C1.81817 8.55763 2.73707 11.6723 4.68889 11.1724C5.00182 11.1181 5.32535 11.0345 5.65685 10.9271C5.62237 11.2003 5.60248 11.4774 5.60248 11.7598C5.60248 14.9634 7.89906 17.6299 10.9355 18.2067C11.4314 17.8566 11.8093 17.423 11.8876 16.9868C11.9684 15.2816 13.4151 14.2301 14.7357 14.2301C15.473 14.2301 16.1267 14.5404 16.5802 15.0695C17.0257 14.9793 17.4725 14.9316 17.9167 14.9249C18.4339 13.9861 18.7296 12.9081 18.7296 11.7612C18.7296 8.13597 15.7912 5.19763 12.166 5.19763L12.1647 5.1963ZM9.77795 10.3729C9.77795 9.84514 9.99143 9.41818 10.2553 9.41818C10.5192 9.41818 10.7326 9.84514 10.7326 10.3729C10.7326 10.9006 10.5192 11.3276 10.2553 11.3276C9.99143 11.3276 9.77795 10.9006 9.77795 10.3729ZM13.4164 13.4093C13.1035 13.8244 12.1408 14.7181 11.031 13.4359C10.6624 13.0102 10.4317 12.4653 10.3959 12.273C10.36 12.0807 10.4131 11.858 10.5788 11.858C10.8414 11.8566 11.5004 12.0675 12.231 12.0516C13.1061 12.033 13.7002 11.8832 13.7002 11.8832C13.8712 11.8593 13.9441 11.9481 13.9428 12.0927C13.9362 12.6854 13.5092 13.286 13.4151 13.4107L13.4164 13.4093ZM14.0741 11.3276C13.8102 11.3276 13.5967 10.9006 13.5967 10.3729C13.5967 9.84514 13.8102 9.41818 14.0741 9.41818C14.3379 9.41818 14.5514 9.84514 14.5514 10.3729C14.5514 10.9006 14.3379 11.3276 14.0741 11.3276Z" fill="#FFF0D4"/>
</svg>
