<svg width="128" height="128" viewBox="0 0 128 128" fill="none" xmlns="http://www.w3.org/2000/svg">
<path d="M113.652 95.0234C105.965 86.4099 95.2156 84.1398 85.4636 87.3646C82.8187 78.0368 69.6015 81.5657 69.3894 91.1551C68.3215 99.1179 58.9443 104.853 51.8654 106.557C42.9337 108.297 45.7058 123.275 54.1001 121.125C63.8663 119.407 77.5502 109.839 83.0804 100.419C90.9655 97.0813 99.0698 98.7148 102.988 104.464C110.215 113.431 122.138 103.333 113.645 95.0234H113.652Z" fill="#FFA339"/>
<path d="M31.7036 110.214C38.0737 110.214 43.2377 105.05 43.2377 98.6795C43.2377 92.3094 38.0737 87.1454 31.7036 87.1454C25.3334 87.1454 20.1694 92.3094 20.1694 98.6795C20.1694 105.05 25.3334 110.214 31.7036 110.214Z" fill="#FFA339"/>
<path d="M99.4726 39.6511C105.843 39.6511 111.007 34.487 111.007 28.1169C111.007 21.7468 105.843 16.5828 99.4726 16.5828C93.1025 16.5828 87.9385 21.7468 87.9385 28.1169C87.9385 34.487 93.1025 39.6511 99.4726 39.6511Z" fill="#FFA339"/>
<path d="M24.8369 34.2339C31.207 34.2339 36.371 29.0699 36.371 22.6998C36.371 16.3297 31.207 11.1656 24.8369 11.1656C18.4667 11.1656 13.3027 16.3297 13.3027 22.6998C13.3027 29.0699 18.4667 34.2339 24.8369 34.2339Z" fill="#FFA339"/>
<path d="M64.8775 27.7138C64.0855 27.7138 63.3005 27.7491 62.5155 27.7986C62.8408 25.861 62.9681 23.6475 62.6711 21.1865C62.5297 19.9772 62.2256 18.775 61.6811 17.6859C57.2965 8.91688 45.8048 10.8263 43.5843 21.1441C43.3368 22.2968 42.8134 23.8809 42.3679 25.2457C39.3412 34.3684 29.2992 41.426 20.7776 43.4839C9.6961 45.6409 14.5969 62.2526 25.0066 59.5865C26.6755 59.2965 28.4011 58.851 30.169 58.2782C29.9852 59.735 29.8791 61.213 29.8791 62.7193C29.8791 79.8048 42.1275 94.0263 58.322 97.1025C60.9668 95.2355 62.9823 92.9231 63.3995 90.5964C63.8309 81.5021 71.5463 75.8941 78.5898 75.8941C82.5217 75.8941 86.0081 77.5489 88.4267 80.3706C90.8028 79.8897 93.186 79.6351 95.5551 79.5997C98.3131 74.5929 99.8901 68.8435 99.8901 62.7264C99.8901 43.392 84.219 27.7209 64.8846 27.7209L64.8775 27.7138ZM52.1483 55.3222C52.1483 52.5076 53.2868 50.2305 54.6941 50.2305C56.1014 50.2305 57.24 52.5076 57.24 55.3222C57.24 58.1368 56.1014 60.4139 54.6941 60.4139C53.2868 60.4139 52.1483 58.1368 52.1483 55.3222ZM71.5533 71.5167C69.8844 73.7301 64.7502 78.4965 58.8311 71.6581C56.8652 69.388 55.6347 66.4815 55.4437 65.4561C55.2528 64.4307 55.5357 63.2426 56.4196 63.2426C57.8199 63.2355 61.3346 64.36 65.2311 64.2751C69.8985 64.1761 73.0667 63.377 73.0667 63.377C73.979 63.2497 74.3679 63.7235 74.3608 64.4943C74.3255 67.6554 72.0484 70.859 71.5463 71.5237L71.5533 71.5167ZM75.061 60.4139C73.6537 60.4139 72.5151 58.1368 72.5151 55.3222C72.5151 52.5076 73.6537 50.2305 75.061 50.2305C76.4683 50.2305 77.6068 52.5076 77.6068 55.3222C77.6068 58.1368 76.4683 60.4139 75.061 60.4139Z" fill="#FFA339"/>
</svg>
