<svg width="28" height="28" viewBox="0 0 28 28" fill="none" xmlns="http://www.w3.org/2000/svg">
<g id="tool(28)">
<path id="Vector" d="M9.85501 13.5984C11.2285 13.5984 12.3418 12.485 12.3418 11.1116C12.3418 9.73815 11.2285 8.62476 9.85501 8.62476C8.48156 8.62476 7.36816 9.73815 7.36816 11.1116C7.36816 12.485 8.48156 13.5984 9.85501 13.5984Z" fill="#FFA339"/>
<path id="Vector_2" d="M9.85567 15.2563C12.1436 15.2563 14.0004 17.1132 14.0004 19.4011V19.6774C14.0004 20.8969 13.0094 21.8879 11.7899 21.8879H7.92146C6.70199 21.8879 5.71094 20.8969 5.71094 19.6774V19.4011C5.71094 17.1132 7.56778 15.2563 9.85567 15.2563Z" fill="#FFA339"/>
<path id="Vector_3" d="M16.3659 12.324C16.3026 12.2076 16.2769 12.0855 16.2809 11.9921C16.2847 11.9055 16.3105 11.8709 16.3258 11.8556L19.8556 8.32583C19.8821 8.29936 19.9106 8.29196 19.9284 8.29223C19.9325 8.29229 19.9354 8.29275 19.9372 8.29315L19.9391 8.29366L19.9392 8.29358L19.9399 8.29428L19.9426 8.29716C22.8525 11.8178 22.8525 16.937 19.9426 20.4577L19.9399 20.4605L19.9392 20.4612L19.9394 20.4611L19.9395 20.461L19.9391 20.4612L19.9372 20.4617C19.9354 20.4621 19.9325 20.4625 19.9284 20.4626C19.9106 20.4629 19.8821 20.4555 19.8556 20.429L16.3436 16.917L15.7408 17.5197L16.3436 16.917C16.3284 16.9018 16.3029 16.8675 16.2987 16.782C16.2943 16.6898 16.319 16.569 16.3808 16.4531C17.0688 15.1657 17.0642 13.6078 16.3659 12.324Z" fill="#FFA339" stroke="#FFA339" stroke-width="1.75"/>
</g>
</svg>
