<svg width="24" height="24" viewBox="0 0 24 24" fill="none" xmlns="http://www.w3.org/2000/svg">
<path d="M20 23.0012H4C2.9 23.0012 2 22.1012 2 21.0012C2 19.9012 2.9 19.0012 4 19.0012H20C21.1 19.0012 22 19.9012 22 21.0012C22 22.1012 21.1 23.0012 20 23.0012ZM13.06 4.19125L16.81 7.94125L8.04 16.7112C7.86 16.9012 7.6 17.0012 7.34 17.0012H5C4.45 17.0012 4 16.5512 4 16.0012V13.6612C4 13.3912 4.11 13.1412 4.29 12.9512L13.06 4.19125ZM17.88 6.87125L14.13 3.12125L15.96 1.29125C16.35 0.901249 16.98 0.901249 17.37 1.29125L19.71 3.63125C20.1 4.02125 20.1 4.65125 19.71 5.04125L17.88 6.87125Z" fill="black"/>
</svg>
