<svg width="24" height="24" viewBox="0 0 24 24" fill="none" xmlns="http://www.w3.org/2000/svg">
<mask id="mask0_1005_172338" style="mask-type:alpha" maskUnits="userSpaceOnUse" x="0" y="0" width="24" height="24">
<rect width="24" height="24" fill="#D9D9D9"/>
</mask>
<g mask="url(#mask0_1005_172338)">
<path d="M12 20.325C11.7667 20.325 11.5292 20.2833 11.2875 20.2C11.0458 20.1167 10.8333 19.9833 10.65 19.8L8.925 18.225C7.15833 16.6083 5.5625 15.0042 4.1375 13.4125C2.7125 11.8208 2 10.0667 2 8.15C2 6.58333 2.525 5.275 3.575 4.225C4.625 3.175 5.93333 2.65 7.5 2.65C8.38333 2.65 9.21667 2.8375 10 3.2125C10.7833 3.5875 11.45 4.1 12 4.75C12.55 4.1 13.2167 3.5875 14 3.2125C14.7833 2.8375 15.6167 2.65 16.5 2.65C18.0667 2.65 19.375 3.175 20.425 4.225C21.475 5.275 22 6.58333 22 8.15C22 10.0667 21.2917 11.825 19.875 13.425C18.4583 15.025 16.85 16.6333 15.05 18.25L13.35 19.8C13.1667 19.9833 12.9542 20.1167 12.7125 20.2C12.4708 20.2833 12.2333 20.325 12 20.325ZM11.05 6.75C10.5667 6.06667 10.05 5.54583 9.5 5.1875C8.95 4.82917 8.28333 4.65 7.5 4.65C6.5 4.65 5.66667 4.98333 5 5.65C4.33333 6.31667 4 7.15 4 8.15C4 9.01667 4.30833 9.9375 4.925 10.9125C5.54167 11.8875 6.27917 12.8333 7.1375 13.75C7.99583 14.6667 8.87917 15.525 9.7875 16.325C10.6958 17.125 11.4333 17.7833 12 18.3C12.5667 17.7833 13.3042 17.125 14.2125 16.325C15.1208 15.525 16.0042 14.6667 16.8625 13.75C17.7208 12.8333 18.4583 11.8875 19.075 10.9125C19.6917 9.9375 20 9.01667 20 8.15C20 7.15 19.6667 6.31667 19 5.65C18.3333 4.98333 17.5 4.65 16.5 4.65C15.7167 4.65 15.05 4.82917 14.5 5.1875C13.95 5.54583 13.4333 6.06667 12.95 6.75C12.8333 6.91667 12.6917 7.04167 12.525 7.125C12.3583 7.20833 12.1833 7.25 12 7.25C11.8167 7.25 11.6417 7.20833 11.475 7.125C11.3083 7.04167 11.1667 6.91667 11.05 6.75Z" fill="#1C1B1F"/>
</g>
</svg>
