<svg width="28" height="28" viewBox="0 0 28 28" fill="none" xmlns="http://www.w3.org/2000/svg">
<g id="Frame 22">
<path id="Vector" d="M21.8979 11.0581H20.9548V8.09284C20.9548 7.07396 20.0934 6.24951 19.0318 6.24951H7.07345C6.01178 6.24951 5.15039 7.0759 5.15039 8.09284C5.15039 8.09284 5.15233 18.6298 5.17372 19.0828C5.18345 19.3045 6.71567 16.8137 7.27373 16.2478C7.48178 16.0378 7.7365 15.8823 8.01456 15.789V18.6453C8.01456 19.6642 8.87595 20.4887 9.93761 20.4887H20.3073C20.8323 20.4887 21.334 20.6909 21.6957 21.0565C22.2537 21.6223 23.784 24.1112 23.7957 23.8915C23.8171 23.4384 23.819 12.8995 23.819 12.8995C23.819 11.8806 22.9576 11.0562 21.8979 11.0562V11.0581Z" fill="#FFA339"/>
</g>
</svg>
