<svg width="21" height="21" viewBox="0 0 21 21" fill="none" xmlns="http://www.w3.org/2000/svg">
<g id="Group 16">
<path id="Vector" d="M2.94685 1.00227H15.0531C16.128 1.00227 17 1.967 17 3.15419V9.85966C17 11.0491 16.128 12.0116 15.0531 12.0116H4.55512C4.02362 12.0116 3.51575 12.2477 3.14961 12.6744C2.58465 13.335 1.03543 16.2405 1.02362 15.984C1.00197 15.4551 1 3.15192 1 3.15192C1 1.96246 1.87205 1 2.94685 1V1.00227Z" stroke="#C7C7CC" stroke-width="1.75" stroke-linecap="round" stroke-linejoin="round"/>
<path id="Vector_2" d="M6 16.2748H16.4583C16.9878 16.2748 17.4938 16.4953 17.8585 16.8939C18.4213 17.5109 19.9647 20.2246 19.9765 19.9851C19.998 19.4911 20 8 20 8" stroke="#C7C7CC" stroke-width="1.75" stroke-linecap="round" stroke-linejoin="round"/>
</g>
</svg>
