<svg width="24" height="24" viewBox="0 0 24 24" fill="none" xmlns="http://www.w3.org/2000/svg">
<path fill-rule="evenodd" clip-rule="evenodd" d="M12 19.5C16.1421 19.5 19.5 16.1421 19.5 12C19.5 7.85786 16.1421 4.5 12 4.5C7.85786 4.5 4.5 7.85786 4.5 12C4.5 16.1421 7.85786 19.5 12 19.5ZM9.19266 8.05687C8.92266 8.46187 9.11391 9.01875 9.56391 9.21C9.90703 9.35063 10.3177 9.24937 10.5145 8.92875C10.7789 8.51813 11.2064 8.175 11.8645 8.175C13.3158 8.175 13.6027 9.53062 13.0908 10.2562C12.8755 10.5641 12.5913 10.8263 12.3038 11.0914C11.9453 11.4221 11.5818 11.7573 11.3414 12.1912C11.1839 12.4725 11.1164 12.7706 11.0827 13.0575C11.0264 13.5469 11.4258 13.9688 11.9152 13.9688C12.3314 13.9688 12.6689 13.6481 12.7195 13.2375C12.7533 12.9844 12.8039 12.8606 12.8883 12.7087C13.0575 12.3977 13.2968 12.1661 13.5754 11.8964C13.8712 11.61 14.2113 11.2808 14.5589 10.7681C15.1664 9.86813 14.9358 8.65875 14.542 8.01187C14.0808 7.25812 13.1752 6.65625 11.8533 6.65625C10.6495 6.65625 9.73828 7.24687 9.19266 8.05687ZM11.8589 17.3438C12.4777 17.3438 12.9839 16.8375 12.9839 16.2188C12.9839 15.6 12.4777 15.0938 11.8589 15.0938C11.2402 15.0938 10.7339 15.6 10.7339 16.2188C10.7339 16.8375 11.2402 17.3438 11.8589 17.3438Z" fill="black"/>
</svg>
