<svg width="72" height="24" viewBox="0 0 72 24" fill="none" xmlns="http://www.w3.org/2000/svg">
<g id="Group 7">
<g id="Group">
<path id="Vector" d="M23.0617 5.69341V5.62675C23.0617 4.59175 23.8967 4.14175 24.78 4.15841C25.6484 4.17508 26.3817 4.65841 26.3817 5.62675V5.69341C26.3817 6.08841 26.3567 6.47008 26.305 6.82841C26.2934 6.91175 26.3517 6.98508 26.435 6.99341C28.67 7.22841 30.1717 8.75508 30.0434 11.7951C30.04 11.8734 29.975 11.9351 29.8967 11.9351H26.975C26.89 11.9351 26.8234 11.8617 26.83 11.7767C26.925 10.4951 26.4767 9.66841 25.5634 9.48341C25.5034 9.47175 25.4434 9.50175 25.4134 9.55341C24.4584 11.1351 22.9317 12.0384 21.325 12.1034C20.4567 12.1367 19.8567 11.6867 19.7067 11.0517C19.5234 10.2834 19.89 9.56675 20.6084 9.41675C22.31 9.06675 23.0617 7.71508 23.0617 5.69508V5.69341ZM23.0617 19.7134C21.5434 19.7134 20.6917 18.6451 20.6917 17.4434V17.2434C20.6917 16.0417 21.5434 15.2734 23.0617 15.2734H30.9767C31.0567 15.2734 31.1234 15.2084 31.1234 15.1267V14.8384C31.1234 14.6384 31.0734 14.5717 30.8567 14.5717H21.7934C21.1417 14.5717 20.875 14.0884 20.875 13.5867C20.875 13.1201 21.1584 12.6184 21.7934 12.6184H32.475C33.96 12.6184 34.5117 13.0517 34.5117 14.3717V15.9384C34.5117 16.5484 34.0184 17.0417 33.4084 17.0417H24.58C24.33 17.0417 24.2134 17.1917 24.2134 17.3584V17.4084C24.2134 17.5751 24.33 17.7251 24.58 17.7251H33.9934C34.6617 17.7251 34.945 18.2417 34.945 18.7434C34.945 19.2101 34.6784 19.7117 33.9934 19.7117H23.0617V19.7134ZM31.09 5.69341C31.09 4.60841 31.8584 4.04175 32.7417 4.04175C33.625 4.04175 34.3934 4.62508 34.3934 5.69341V6.58175C34.3934 6.66175 34.4584 6.72841 34.54 6.72841H34.9117C35.93 6.72841 36.23 7.48008 36.23 8.14675C36.23 8.81341 35.9134 9.56508 34.9117 9.56508H34.54C34.46 9.56508 34.3934 9.63008 34.3934 9.71175V11.9401C34.3934 12.0201 34.3284 12.0867 34.2467 12.0867H31.2334C31.1534 12.0867 31.0867 12.0217 31.0867 11.9401V5.69341H31.09Z" fill="#8E8E93"/>
<path id="Vector_2" d="M39.6034 19.0801C37.4167 19.0801 37.0167 18.4284 37.0167 16.3267V7.34675C37.0167 5.24341 37.4167 4.59341 39.6034 4.59341H43.5084C45.6951 4.59341 46.0951 5.24508 46.0951 7.34675V16.9151C46.0951 18.1101 45.1267 19.0801 43.9301 19.0801H39.6017H39.6034ZM40.2551 15.8584C40.2551 16.2251 40.3717 16.4267 40.8051 16.4267H42.3984C42.6517 16.4267 42.8584 16.2217 42.8584 15.9667V7.79675C42.8584 7.46341 42.7751 7.24675 42.4084 7.24675H40.6901C40.3234 7.24675 40.2567 7.46341 40.2567 7.79675V15.8584H40.2551ZM47.9167 5.66008C47.9167 4.59175 48.7017 4.04175 49.5701 4.04175C50.4384 4.04175 51.2217 4.61008 51.2217 5.66008V9.88341H51.7717C52.7901 9.88341 53.0901 10.6684 53.0901 11.3351C53.0901 12.0017 52.7734 12.7867 51.7717 12.7867H51.2217V18.1951C51.2217 19.0334 50.5417 19.7134 49.7034 19.7134H49.4351C48.5967 19.7134 47.9167 19.0334 47.9167 18.1951V5.66008Z" fill="#8E8E93"/>
<path id="Vector_3" d="M68.145 10.1834C69.03 10.1834 69.3466 10.7517 69.3466 11.3184C69.3466 11.92 69.0133 12.4534 68.145 12.4534H54.9266C54.0583 12.4534 53.725 11.9184 53.725 11.3184C53.725 10.7517 54.0416 10.1834 54.9266 10.1834H68.145ZM56.295 19.7134C54.86 19.7134 54.1917 18.7117 54.1917 17.5767V17.5267C54.1917 16.3584 54.8433 15.54 56.295 15.54H65.225V15.2234C65.225 15.0734 65.125 14.9567 64.875 14.9567H55.3116C54.6933 14.9567 54.36 14.4734 54.36 14.0384C54.36 13.6034 54.6433 13.1034 55.3116 13.1034H66.795C68.2133 13.1034 68.665 13.6384 68.665 14.655V15.9734C68.665 16.6834 68.09 17.26 67.3783 17.26H58.1C57.85 17.26 57.7833 17.3767 57.7833 17.5434C57.7833 17.7267 57.85 17.8434 58.1 17.8434H68.2316C68.8833 17.8434 69.1333 18.31 69.1333 18.7784C69.1333 19.1784 68.9 19.7134 68.2316 19.7134H56.2983H56.295ZM65.775 9.58171H57.2967C55.21 9.58171 54.2583 8.39671 54.2583 6.89504C54.2583 5.39337 55.21 4.20837 57.2967 4.20837H65.775C67.8617 4.20837 68.8133 5.39337 68.8133 6.89504C68.8133 8.39671 67.8617 9.58171 65.775 9.58171ZM64.7233 6.37671H58.3483C57.8483 6.37671 57.68 6.59337 57.68 6.89337C57.68 7.19337 57.8467 7.41004 58.3483 7.41004H64.7233C65.2233 7.41004 65.3916 7.19337 65.3916 6.89337C65.3916 6.59337 65.225 6.37671 64.7233 6.37671Z" fill="#8E8E93"/>
<path id="Vector_4" d="M3.71667 10.76C3.71667 13.0134 5.41833 14.1484 7.43833 14.1484C9.45833 14.1484 11.16 13.0134 11.16 10.76V8.56502C11.16 8.19836 11.0767 7.86336 10.9267 7.56336C11.5617 7.44669 11.8283 6.98002 11.8283 6.44502C11.8283 5.84502 11.4783 5.26002 10.6433 5.26002H8.94167C8.925 4.25836 8.30667 3.77502 7.44 3.77502C6.57334 3.77502 5.93833 4.24169 5.93833 5.26002H4.20167C3.38333 5.26002 3 5.84502 3 6.44502C3 6.98002 3.3 7.44669 3.935 7.56336C3.80167 7.86336 3.71833 8.19836 3.71833 8.56502V10.76H3.71667ZM6.55333 8.54836C6.55333 7.81336 7.00333 7.53002 7.43833 7.53002C7.87333 7.53002 8.32333 7.81336 8.32333 8.54836V10.7767C8.32333 11.5117 7.87333 11.795 7.43833 11.795C7.00333 11.795 6.55333 11.5117 6.55333 10.7767V8.54836Z" fill="#8E8E93"/>
<path id="Vector_5" d="M14.1 14.2717C14.4234 14.2901 14.7384 14.3284 15.045 14.3817C15.045 14.3634 15.0484 14.3451 15.0484 14.3267V10.0001H15.8334V14.3267C15.8334 14.4101 15.8417 14.4917 15.855 14.5717C16.6384 14.8034 17.345 15.1601 17.9534 15.6234C18.4267 15.3851 18.7534 14.8951 18.7534 14.3267V5.46008C18.7534 4.54175 18.035 4.04175 17.285 4.04175C16.535 4.04175 15.8334 4.52508 15.8334 5.46008V7.43008H15.0484V5.46008C15.0484 4.54175 14.3467 4.04175 13.5967 4.04175C12.8467 4.04175 12.145 4.52508 12.145 5.46008V12.7467C12.6967 12.8217 13.1934 13.0567 13.5684 13.4351C13.8067 13.6734 13.985 13.9567 14.1017 14.2717H14.1Z" fill="#8E8E93"/>
<path id="Vector_6" d="M18.7883 18.0916C17.7566 15.9433 15.4316 15.125 13.3133 15.2066C13.3216 13.205 10.4983 13.1483 9.90832 15.04C9.23998 16.5583 7.05332 17.16 5.55165 17.0933C3.67998 16.9283 3.69665 19.81 5.48498 19.8633C7.52165 20.08 10.4583 19.2116 12.095 17.66C13.85 17.4483 15.3633 18.235 15.8133 19.6016C16.735 21.7933 19.9983 20.2266 18.7883 18.0916Z" fill="#8E8E93"/>
</g>
</g>
</svg>
