<svg width="28" height="28" viewBox="0 0 28 28" fill="none" xmlns="http://www.w3.org/2000/svg">
<g id="tool(28)">
<path id="Vector" d="M9.625 13.5762C11.0747 13.5762 12.25 12.4009 12.25 10.9512C12.25 9.50142 11.0747 8.32617 9.625 8.32617C8.17525 8.32617 7 9.50142 7 10.9512C7 12.4009 8.17525 13.5762 9.625 13.5762Z" stroke="#C7C7CC" stroke-width="1.75" stroke-linecap="round" stroke-linejoin="round"/>
<path id="Vector_2" d="M9.625 15.3262C12.04 15.3262 14 17.2862 14 19.7012V19.9928C14 21.2801 12.9539 22.3262 11.6667 22.3262H7.58333C6.29611 22.3262 5.25 21.2801 5.25 19.9928V19.7012C5.25 17.2862 7.21 15.3262 9.625 15.3262Z" stroke="#C7C7CC" stroke-width="1.75" stroke-linecap="round" stroke-linejoin="round"/>
<path id="Vector_3" d="M16.3659 12.324C16.3026 12.2076 16.2769 12.0855 16.2809 11.9921C16.2847 11.9055 16.3105 11.8709 16.3258 11.8556L19.8556 8.32583C19.8821 8.29936 19.9106 8.29196 19.9284 8.29223C19.9325 8.29229 19.9354 8.29275 19.9372 8.29315L19.9391 8.29366L19.9392 8.29358L19.9399 8.29428L19.9426 8.29716C22.8525 11.8178 22.8525 16.937 19.9426 20.4577L19.9399 20.4605L19.9392 20.4612L19.9394 20.4611L19.9395 20.461L19.9391 20.4612L19.9372 20.4617C19.9354 20.4621 19.9325 20.4625 19.9284 20.4626C19.9106 20.4629 19.8821 20.4555 19.8556 20.429L16.3436 16.917L15.7408 17.5197L16.3436 16.917C16.3284 16.9018 16.3029 16.8675 16.2987 16.782C16.2943 16.6898 16.319 16.569 16.3808 16.4531C17.0688 15.1657 17.0642 13.6078 16.3659 12.324Z" stroke="#C7C7CC" stroke-width="1.75"/>
</g>
</svg>
